<mxfile host="app.diagrams.net" modified="2024-07-16T09:45:50.755Z" agent="Mozilla/5.0 (Windows NT 10.0; Win64; x64; rv:128.0) Gecko/20100101 Firefox/128.0" version="24.6.5" etag="72eHUDLRjcL9fcW31nY8" type="github">
  <diagram name="Page-1" id="4mZjR8bOPbGRXu0Zy_Mv">
    <mxGraphModel>
      <root>
        <mxCell id="0" />
        <mxCell id="1" parent="0" />
      </root>
    </mxGraphModel>
  </diagram>
</mxfile>
